<?xml version="1.0" encoding="UTF-8" standalone="no"?>
<!DOCTYPE svg PUBLIC "-//W3C//DTD SVG 1.1//EN" "http://www.w3.org/Graphics/SVG/1.1/DTD/svg11.dtd">
<svg xmlns="http://www.w3.org/2000/svg" xmlns:xlink="http://www.w3.org/1999/xlink" version="1.1" width="595.32pt" height="841.92pt" viewBox="0 0 595.32 841.92">
<g enable-background="new">
<g>
<g id="Layer-1" data-name="P">
<clipPath id="cp0">
<path transform="matrix(1,0,0,-1,0,841.92)" d="M .000008871 0 L 595.32 0 L 595.32 841.92 L .000008871 841.92 Z " fill-rule="evenodd"/>
</clipPath>
<g clip-path="url(#cp0)">
<text xml:space="preserve" transform="matrix(1 0 -0 1 0 841.92)" font-size="12" font-family="TimesNewRomanPSMT"><tspan y="-758.76" x="393.31 401.974 407.23 413.23 422.566 427.894 433.894 436.894 443.566 449.566 452.93803 458.93803 464.93803 468.27403 474.27403 477.27403 485.93803 489.27403 492.64604 501.98204 507.98204 513.98208 517.35409">Achmad Shiddiq Alimudin</tspan></text>
</g>
<clipPath id="cp1">
<path transform="matrix(1,0,0,-1,0,841.92)" d="M .000008871 0 L 595.32 0 L 595.32 841.92 L .000008871 841.92 Z " fill-rule="evenodd"/>
</clipPath>
<g clip-path="url(#cp1)">
<text xml:space="preserve" transform="matrix(1 0 -0 1 0 841.92)" font-size="12" font-family="TimesNewRomanPSMT"><tspan y="-758.76" x="523.42"> </tspan></text>
</g>
<path transform="matrix(1,0,0,-1,0,841.92)" d="M 393.31 756.82 L 523.41006 756.82 L 523.41006 757.42007 L 393.31 757.42007 Z " fill-rule="evenodd"/>
</g>
<g id="Layer-1" data-name="P">
<clipPath id="cp2">
<path transform="matrix(1,0,0,-1,0,841.92)" d="M .000008871 0 L 595.32 0 L 595.32 841.92 L .000008871 841.92 Z " fill-rule="evenodd"/>
</clipPath>
<g clip-path="url(#cp2)">
<text xml:space="preserve" transform="matrix(1 0 -0 1 0 841.92)" font-size="12" font-family="TimesNewRomanPSMT"><tspan y="-738.1" x="390.79 398.122 403.39 408.67 414.67 420.67 424.006 429.334 434.59004 437.92604 440.92604 448.37803 453.65803 458.32603 461.66203">Technical Test </tspan></text>
</g>
<clipPath id="cp3">
<path transform="matrix(1,0,0,-1,0,841.92)" d="M .000008871 0 L 595.32 0 L 595.32 841.92 L .000008871 841.92 Z " fill-rule="evenodd"/>
</clipPath>
<g clip-path="url(#cp3)">
<text xml:space="preserve" transform="matrix(1 0 -0 1 0 841.92)" font-size="12" font-family="TimesNewRomanPSMT"><tspan y="-738.1" x="464.74">-</tspan></text>
</g>
<clipPath id="cp4">
<path transform="matrix(1,0,0,-1,0,841.92)" d="M .000008871 0 L 595.32 0 L 595.32 841.92 L .000008871 841.92 Z " fill-rule="evenodd"/>
</clipPath>
<g clip-path="url(#cp4)">
<text xml:space="preserve" transform="matrix(1 0 -0 1 0 841.92)" font-size="12" font-family="TimesNewRomanPSMT"><tspan y="-738.1" x="468.7"> </tspan></text>
</g>
<clipPath id="cp5">
<path transform="matrix(1,0,0,-1,0,841.92)" d="M .000008871 0 L 595.32 0 L 595.32 841.92 L .000008871 841.92 Z " fill-rule="evenodd"/>
</clipPath>
<g clip-path="url(#cp5)">
<text xml:space="preserve" transform="matrix(1 0 -0 1 0 841.92)" font-size="12" font-family="TimesNewRomanPSMT"><tspan y="-738.1" x="471.7 479.032 482.98 488.26 494.368 499.648 502.984 506.116 514.77999 518.11599">Travel Aja</tspan></text>
</g>
<clipPath id="cp6">
<path transform="matrix(1,0,0,-1,0,841.92)" d="M .000008871 0 L 595.32 0 L 595.32 841.92 L .000008871 841.92 Z " fill-rule="evenodd"/>
</clipPath>
<g clip-path="url(#cp6)">
<text xml:space="preserve" transform="matrix(1 0 -0 1 0 841.92)" font-size="12" font-family="TimesNewRomanPSMT"><tspan y="-738.1" x="523.42"> </tspan></text>
</g>
<path transform="matrix(1,0,0,-1,0,841.92)" d="M 390.79 736.18 L 523.41006 736.18 L 523.41006 736.78 L 390.79 736.78 Z " fill-rule="evenodd"/>
</g>
<g id="Layer-1" data-name="P">
<clipPath id="cp7">
<path transform="matrix(1,0,0,-1,0,841.92)" d="M .000008871 0 L 595.32 0 L 595.32 841.92 L .000008871 841.92 Z " fill-rule="evenodd"/>
</clipPath>
<g clip-path="url(#cp7)">
<text xml:space="preserve" transform="matrix(1 0 -0 1 0 841.92)" font-size="12" font-family="TimesNewRomanPSMT"><tspan y="-717.34" x="72.024"> </tspan></text>
</g>
</g>
<g id="Layer-1" data-name="P">
<clipPath id="cp8">
<path transform="matrix(1,0,0,-1,0,841.92)" d="M .000008871 0 L 595.32 0 L 595.32 841.92 L .000008871 841.92 Z " fill-rule="evenodd"/>
</clipPath>
<g clip-path="url(#cp8)">
<text xml:space="preserve" transform="matrix(1 0 -0 1 0 841.92)" font-size="12" font-family="TimesNewRomanPS" font-weight="bold"><tspan y="-696.7" x="72.024 78.024">3.</tspan></text>
</g>
<clipPath id="cp9">
<path transform="matrix(1,0,0,-1,0,841.92)" d="M .000008871 0 L 595.32 0 L 595.32 841.92 L .000008871 841.92 Z " fill-rule="evenodd"/>
</clipPath>
<g clip-path="url(#cp9)">
<text xml:space="preserve" transform="matrix(1 0 -0 1 0 841.92)" font-size="12" font-family="TimesNewRomanPS" font-weight="bold"><tspan y="-696.7" x="81.024"> </tspan></text>
</g>
<clipPath id="cp10">
<path transform="matrix(1,0,0,-1,0,841.92)" d="M .000008871 0 L 595.32 0 L 595.32 841.92 L .000008871 841.92 Z " fill-rule="evenodd"/>
</clipPath>
<g clip-path="url(#cp10)">
<text xml:space="preserve" transform="matrix(1 0 -0 1 0 841.92)" font-size="12" font-family="TimesNewRomanPS" font-weight="bold"><tspan y="-696.7" x="84.024 92.688 99.36 105.36 112.091999 118.091999 124.799999 127.799999 133.79999 140.50798 146.50798 149.38799 156.09598 161.37598 166.04398 172.04398 175.37998 181.37998 188.12398 194.00399 200.71198 203.71198 210.41997 216.41997 221.69997 225.03597 228.03597 232.70397 238.03197 243.29998 246.63597 253.36797 257.36396 260.36396 267.03596 270.39595 273.39595 280.10395 286.10395 294.76795 300.76795 307.43995 310.34394 313.58393 320.29194 323.62794 329.62794 332.62794 338.62794 341.99995 348.70796 354.70796 357.70796 363.58796 370.29597 376.29597 379.29597 383.29197 389.29197 392.62797 398.62797 405.32395 411.32395 414.32395 418.31996 423.56394 426.89994 432.89994 437.56794 444.31193 450.31193 457.01994 460.01994 466.72795 469.96794 480.03593 485.91593 492.62394 498.62394">Apakah ada kesalahan dari script di bawah ini? Jika ada tolong jelaskan dimana </tspan></text>
</g>
<clipPath id="cp11">
<path transform="matrix(1,0,0,-1,0,841.92)" d="M .000008871 0 L 595.32 0 L 595.32 841.92 L .000008871 841.92 Z " fill-rule="evenodd"/>
</clipPath>
<g clip-path="url(#cp11)">
<text xml:space="preserve" transform="matrix(1 0 -0 1 0 841.92)" font-size="12" font-family="TimesNewRomanPS" font-weight="bold"><tspan y="-675.94" x="72.024 75.36 80.688 84.62401 90.62401 97.33201">letak </tspan></text>
</g>
<clipPath id="cp12">
<path transform="matrix(1,0,0,-1,0,841.92)" d="M .000008871 0 L 595.32 0 L 595.32 841.92 L .000008871 841.92 Z " fill-rule="evenodd"/>
</clipPath>
<g clip-path="url(#cp12)">
<text xml:space="preserve" transform="matrix(1 0 -0 1 0 841.92)" font-size="12" font-family="TimesNewRomanPS" font-weight="bold"><tspan y="-675.94" x="100.34 107.048 112.328 116.996 122.996 126.332 132.332 139.076 145.076 151.784 158.49199 164.49199 170.49199 173.372 180.07999 186.07999 192.67998 195.67998 202.38797 208.38797 214.38797 220.38797 223.72397 233.81597 239.69597 246.40396 252.40396 255.40396 261.40397 268.11198 274.81999 280.81999 283.69999 293.76799 299.04798 309.00798 315.71598 320.99598 326.27598 332.98399 338.98399 342.31999 349.05198 352.38798 359.11997 365.11997 371.11997 374.11997 377.11997 383.11997 386.35997 393.06797 399.06797 402.06797 406.06398 409.39997 416.09596 422.09596 428.80397 431.68397 437.68397 444.39198 450.39198 453.39198 456.39198 460.38798 466.38798 469.72398 475.72398 482.41996 488.41996">kesalahannya dan bagaimana anda memperbaikinya. Jika tidak ada, tolong </tspan></text>
</g>
<clipPath id="cp13">
<path transform="matrix(1,0,0,-1,0,841.92)" d="M .000008871 0 L 595.32 0 L 595.32 841.92 L .000008871 841.92 Z " fill-rule="evenodd"/>
</clipPath>
<g clip-path="url(#cp13)">
<text xml:space="preserve" transform="matrix(1 0 -0 1 0 841.92)" font-size="12" font-family="TimesNewRomanPS" font-weight="bold"><tspan y="-655.3" x="72.024 76.020008 81.26401 84.600009 90.600009 95.268009 102.012 108.012 114.72001 117.72001 124.42802 131.13602 135.13202 141.69602 148.404 151.404 157.404 164.112 170.112">jelaskan untuk apa </tspan></text>
</g>
<clipPath id="cp14">
<path transform="matrix(1,0,0,-1,0,841.92)" d="M .000008871 0 L 595.32 0 L 595.32 841.92 L .000008871 841.92 Z " fill-rule="evenodd"/>
</clipPath>
<g clip-path="url(#cp14)">
<text xml:space="preserve" transform="matrix(1 0 -0 1 0 841.92)" font-size="12" font-family="TimesNewRomanPS" font-weight="bold"><tspan y="-655.3" x="173.18 177.84799 183.14 188.42 191.756 198.48799 202.484 205.484 212.15599 215.51599 218.51599 225.22399 231.22399 239.88799 245.88799 252.55998 255.55998 258.824 265.532 268.868 271.868">script di bawah ini. </tspan></text>
</g>
<clipPath id="cp15">
<path transform="matrix(1,0,0,-1,0,841.92)" d="M .000008871 0 L 595.32 0 L 595.32 841.92 L .000008871 841.92 Z " fill-rule="evenodd"/>
</clipPath>
<g clip-path="url(#cp15)">
<text xml:space="preserve" transform="matrix(1 0 -0 1 0 841.92)" font-size="12" font-family="TimesNewRomanPS" font-weight="bold"><tspan y="-655.3" x="274.85"> </tspan></text>
</g>
</g>
<g id="Layer-1" data-name="P">
<clipPath id="cp16">
<path transform="matrix(1,0,0,-1,0,841.92)" d="M .000008871 0 L 595.32 0 L 595.32 841.92 L .000008871 841.92 Z " fill-rule="evenodd"/>
</clipPath>
<g clip-path="url(#cp16)">
<text xml:space="preserve" transform="matrix(1 0 -0 1 0 841.92)" font-size="14.04" font-family="TimesNewRomanPSMT"><tspan y="-632.62" x="72.024"> </tspan></text>
</g>
</g>
<g id="Layer-1" data-name="P">
<clipPath id="cp17">
<path transform="matrix(1,0,0,-1,0,841.92)" d="M .000008871 0 L 595.32 0 L 595.32 841.92 L .000008871 841.92 Z " fill-rule="evenodd"/>
</clipPath>
<g clip-path="url(#cp17)">
<text xml:space="preserve" transform="matrix(1 0 -0 1 0 841.92)" font-size="12" font-family="TimesNewRomanPSMT"><tspan y="-618.46" x="72.024 78.624 86.652 95.316 105.984 108.984 114.984 120.984 124.32 129.612 135.612 141.612">FROM golang </tspan></text>
</g>
<clipPath id="cp18">
<path transform="matrix(1,0,0,-1,0,841.92)" d="M .000008871 0 L 595.32 0 L 595.32 841.92 L .000008871 841.92 Z " fill-rule="evenodd"/>
</clipPath>
<g clip-path="url(#cp18)">
<text xml:space="preserve" transform="matrix(1 0 -0 1 0 841.92)" font-size="14.04" font-family="TimesNewRomanPSMT"><tspan y="-618.46" x="144.74"> </tspan></text>
</g>
</g>
<g id="Layer-1" data-name="P">
<clipPath id="cp19">
<path transform="matrix(1,0,0,-1,0,841.92)" d="M .000008871 0 L 595.32 0 L 595.32 841.92 L .000008871 841.92 Z " fill-rule="evenodd"/>
</clipPath>
<g clip-path="url(#cp19)">
<text xml:space="preserve" transform="matrix(1 0 -0 1 0 841.92)" font-size="12" font-family="TimesNewRomanPSMT"><tspan y="-597.7" x="72.024 80.688 89.30401 97.96801 100.96801 103.96801 106.96801 110.30401 116.30401 122.30401 125.64001 130.33202 134.32802 139.57202 142.90802 148.90802 152.28002 155.61602 161.61602 167.61602 173.61602 176.61602 181.94402 188.02802 197.36402">ADD . /go/src/github.com/</tspan></text>
</g>
<clipPath id="cp20">
<path transform="matrix(1,0,0,-1,0,841.92)" d="M .000008871 0 L 595.32 0 L 595.32 841.92 L .000008871 841.92 Z " fill-rule="evenodd"/>
</clipPath>
<g clip-path="url(#cp20)">
<text xml:space="preserve" transform="matrix(1 0 -0 1 0 841.92)" font-size="12" font-family="TimesNewRomanPSMT"><tspan y="-597.7" x="200.81 204.146 209.474 212.81 218.81 224.81 234.146 240.146 245.474 251.474 254.81 258.146 264.146 270.146 273.518 279.518 285.518 294.854 300.182 303.518 309.398 314.678 319.958 325.958 331.238 337.238 343.238">telkomdev/indihome/backend </tspan></text>
</g>
<clipPath id="cp21">
<path transform="matrix(1,0,0,-1,0,841.92)" d="M .000008871 0 L 595.32 0 L 595.32 841.92 L .000008871 841.92 Z " fill-rule="evenodd"/>
</clipPath>
<g clip-path="url(#cp21)">
<text xml:space="preserve" transform="matrix(1 0 -0 1 0 841.92)" font-size="14.04" font-family="TimesNewRomanPSMT"><tspan y="-597.7" x="346.39"> </tspan></text>
</g>
</g>
<g id="Layer-1" data-name="P">
<clipPath id="cp22">
<path transform="matrix(1,0,0,-1,0,841.92)" d="M .000008871 0 L 595.32 0 L 595.32 841.92 L .000008871 841.92 Z " fill-rule="evenodd"/>
</clipPath>
<g clip-path="url(#cp22)">
<text xml:space="preserve" transform="matrix(1 0 -0 1 0 841.92)" font-size="12" font-family="TimesNewRomanPSMT"><tspan y="-577.03" x="72.024 83.30401 91.96801 99.97201 108.63601 117.37201 121.21201 129.24002 132.24002 135.57602 141.57602 147.57602 150.94802 155.61602 159.61202 164.86801 168.20401 174.20401 177.576 180.912 186.912 192.912 198.912 201.912 207.24 213.24 222.576 225.912 229.284 234.564 237.9 243.9 249.9 259.272 265.272 270.552 276.552 279.888 283.26 289.26 295.26 298.596 304.596 310.5 319.836 325.164">WORKDIR /go/src/github.com/telkomdev/indihome </tspan></text>
</g>
<clipPath id="cp23">
<path transform="matrix(1,0,0,-1,0,841.92)" d="M .000008871 0 L 595.32 0 L 595.32 841.92 L .000008871 841.92 Z " fill-rule="evenodd"/>
</clipPath>
<g clip-path="url(#cp23)">
<text xml:space="preserve" transform="matrix(1 0 -0 1 0 841.92)" font-size="14.04" font-family="TimesNewRomanPSMT"><tspan y="-577.03" x="328.27"> </tspan></text>
</g>
</g>
<g id="Layer-1" data-name="P">
<clipPath id="cp24">
<path transform="matrix(1,0,0,-1,0,841.92)" d="M .000008871 0 L 595.32 0 L 595.32 841.92 L .000008871 841.92 Z " fill-rule="evenodd"/>
</clipPath>
<g clip-path="url(#cp24)">
<text xml:space="preserve" transform="matrix(1 0 -0 1 0 841.92)" font-size="12" font-family="TimesNewRomanPSMT"><tspan y="-556.27" x="72.024 80.052 88.716 97.33201 100.33201 106.33201 112.33201 115.33201 121.33201 126.612018 129.94802 132.94802 138.94802 142.32 145.656 151.656 157.656 163.656 166.656 171.98401 177.98401 187.32 190.656 194.028 200.028 206.028 209.364 214.032 217.416 223.416 229.416 235.416 240.696 246.696">RUN go get github.com/tools/godep </tspan></text>
</g>
<clipPath id="cp25">
<path transform="matrix(1,0,0,-1,0,841.92)" d="M .000008871 0 L 595.32 0 L 595.32 841.92 L .000008871 841.92 Z " fill-rule="evenodd"/>
</clipPath>
<g clip-path="url(#cp25)">
<text xml:space="preserve" transform="matrix(1 0 -0 1 0 841.92)" font-size="14.04" font-family="TimesNewRomanPSMT"><tspan y="-556.27" x="249.77"> </tspan></text>
</g>
</g>
<g id="Layer-1" data-name="P">
<clipPath id="cp26">
<path transform="matrix(1,0,0,-1,0,841.92)" d="M .000008871 0 L 595.32 0 L 595.32 841.92 L .000008871 841.92 Z " fill-rule="evenodd"/>
</clipPath>
<g clip-path="url(#cp26)">
<text xml:space="preserve" transform="matrix(1 0 -0 1 0 841.92)" font-size="12" font-family="TimesNewRomanPSMT"><tspan y="-535.63" x="72.024 80.052 88.716 97.33201 100.33201 106.33201 112.33201 118.33201 123.612018 129.61202 132.61202 136.60802 141.85202 146.52002 149.85602 155.85602 159.96002 165.24002">RUN godep restore </tspan></text>
</g>
<clipPath id="cp27">
<path transform="matrix(1,0,0,-1,0,841.92)" d="M .000008871 0 L 595.32 0 L 595.32 841.92 L .000008871 841.92 Z " fill-rule="evenodd"/>
</clipPath>
<g clip-path="url(#cp27)">
<text xml:space="preserve" transform="matrix(1 0 -0 1 0 841.92)" font-size="14.04" font-family="TimesNewRomanPSMT"><tspan y="-535.63" x="168.38"> </tspan></text>
</g>
</g>
<g id="Layer-1" data-name="P">
<clipPath id="cp28">
<path transform="matrix(1,0,0,-1,0,841.92)" d="M .000008871 0 L 595.32 0 L 595.32 841.92 L .000008871 841.92 Z " fill-rule="evenodd"/>
</clipPath>
<g clip-path="url(#cp28)">
<text xml:space="preserve" transform="matrix(1 0 -0 1 0 841.92)" font-size="12" font-family="TimesNewRomanPSMT"><tspan y="-514.99" x="72.024 80.052 88.716 97.33201 100.33201 106.33201 112.33201 115.33201 118.66801 124.66801 129.36002 132.69602 138.02402 141.36002 144.69602 147.69602 153.69602 157.06801 160.404 166.404 172.404 178.404 181.404 186.73201 192.73201 202.06801 205.404 208.776 214.056 217.392 223.392 229.392 238.76399 244.76399 250.04399 256.044 259.38 262.752 268.752 274.752 278.088 284.088 290.088 299.46003 304.74003">RUN go install github.com/telkomdev/indihome </tspan></text>
</g>
<clipPath id="cp29">
<path transform="matrix(1,0,0,-1,0,841.92)" d="M .000008871 0 L 595.32 0 L 595.32 841.92 L .000008871 841.92 Z " fill-rule="evenodd"/>
</clipPath>
<g clip-path="url(#cp29)">
<text xml:space="preserve" transform="matrix(1 0 -0 1 0 841.92)" font-size="14.04" font-family="TimesNewRomanPSMT"><tspan y="-514.99" x="307.73"> </tspan></text>
</g>
</g>
<g id="Layer-1" data-name="P">
<clipPath id="cp30">
<path transform="matrix(1,0,0,-1,0,841.92)" d="M .000008871 0 L 595.32 0 L 595.32 841.92 L .000008871 841.92 Z " fill-rule="evenodd"/>
</clipPath>
<g clip-path="url(#cp30)">
<text xml:space="preserve" transform="matrix(1 0 -0 1 0 841.92)" font-size="12" font-family="TimesNewRomanPSMT"><tspan y="-494.23" x="72.024 79.356 87.984 95.316 103.32 111.984 118.69201 127.35601 131.292 139.95601 147.25202 150.25202 153.58802 159.58802 165.58802 168.96 174.96 178.296 184.296 187.668 191.004 197.004 203.004 206.37599 212.37599 218.37599 227.71199 233.04">ENTRYPOINT /go/bin/indihome </tspan></text>
</g>
<clipPath id="cp31">
<path transform="matrix(1,0,0,-1,0,841.92)" d="M .000008871 0 L 595.32 0 L 595.32 841.92 L .000008871 841.92 Z " fill-rule="evenodd"/>
</clipPath>
<g clip-path="url(#cp31)">
<text xml:space="preserve" transform="matrix(1 0 -0 1 0 841.92)" font-size="14.04" font-family="TimesNewRomanPSMT"><tspan y="-494.23" x="236.09"> </tspan></text>
</g>
</g>
<g id="Layer-1" data-name="P">
<clipPath id="cp32">
<path transform="matrix(1,0,0,-1,0,841.92)" d="M .000008871 0 L 595.32 0 L 595.32 841.92 L .000008871 841.92 Z " fill-rule="evenodd"/>
</clipPath>
<g clip-path="url(#cp32)">
<text xml:space="preserve" transform="matrix(1 0 -0 1 0 841.92)" font-size="12" font-family="TimesNewRomanPSMT"><tspan y="-473.59" x="72.024 79.356 83.184009 89.892009 97.22401 104.55601 113.17201 116.17201 122.17201">LISTEN 80</tspan></text>
</g>
<clipPath id="cp33">
<path transform="matrix(1,0,0,-1,0,841.92)" d="M .000008871 0 L 595.32 0 L 595.32 841.92 L .000008871 841.92 Z " fill-rule="evenodd"/>
</clipPath>
<g clip-path="url(#cp33)">
<text xml:space="preserve" transform="matrix(1 0 -0 1 0 841.92)" font-size="12" font-family="TimesNewRomanPSMT"><tspan y="-473.59" x="128.3"> </tspan></text>
</g>
</g>
<g id="Layer-1" data-name="P">
<clipPath id="cp34">
<path transform="matrix(1,0,0,-1,0,841.92)" d="M .000008871 0 L 595.32 0 L 595.32 841.92 L .000008871 841.92 Z " fill-rule="evenodd"/>
</clipPath>
<g clip-path="url(#cp34)">
<text xml:space="preserve" transform="matrix(1 0 -0 1 0 841.92)" font-size="12" font-family="TimesNewRomanPSMT"><tspan y="-444.79" x="72.024 80.688 85.94401 90.61201 95.90401 99.240009 104.56801 110.56801 115.82401 121.82401 124.82401 131.53202 136.92002 140.91602 144.25202 150.25202 153.58802 156.58802">Kesalahan Script, </tspan></text>
</g>
<clipPath id="cp35">
<path transform="matrix(1,0,0,-1,0,841.92)" d="M .000008871 0 L 595.32 0 L 595.32 841.92 L .000008871 841.92 Z " fill-rule="evenodd"/>
</clipPath>
<g clip-path="url(#cp35)">
<text xml:space="preserve" transform="matrix(1 0 -0 1 0 841.92)" font-size="12" font-family="TimesNewRomanPSMT"><tspan y="-444.79" x="159.62"> </tspan></text>
</g>
</g>
<g id="Layer-1" data-name="P">
<clipPath id="cp36">
<path transform="matrix(1,0,0,-1,0,841.92)" d="M .000008871 0 L 595.32 0 L 595.32 841.92 L .000008871 841.92 Z " fill-rule="evenodd"/>
</clipPath>
<g clip-path="url(#cp36)">
<text xml:space="preserve" transform="matrix(1 0 -0 1 0 841.92)" font-size="12" font-family="TimesNewRomanPSMT"><tspan y="-416.11" x="90.024 96.024">1.</tspan></text>
</g>
<clipPath id="cp37">
<path transform="matrix(1,0,0,-1,0,841.92)" d="M .000008871 0 L 595.32 0 L 595.32 841.92 L .000008871 841.92 Z " fill-rule="evenodd"/>
</clipPath>
<g clip-path="url(#cp37)">
<text xml:space="preserve" transform="matrix(1 0 -0 1 0 841.92)" font-size="12" font-family="ArialMT"><tspan y="-416.11" x="99.024"> </tspan></text>
</g>
<clipPath id="cp38">
<path transform="matrix(1,0,0,-1,0,841.92)" d="M .000008871 0 L 595.32 0 L 595.32 841.92 L .000008871 841.92 Z " fill-rule="evenodd"/>
</clipPath>
<g clip-path="url(#cp38)">
<text xml:space="preserve" transform="matrix(1 0 -0 1 0 841.92)" font-size="12" font-family="TimesNewRomanPSMT"><tspan y="-416.11" x="108.02 117.355998 122.684 128.68399 134.68399 138.62 144.62 147.956 152.40799 157.07599 162.368 168.368 173.756 178.18399 182.85199 188.144 194.252 199.532 202.868 208.868 214.868 220.868 226.196">menurut saya sebaiknya </tspan></text>
</g>
<clipPath id="cp39">
<path transform="matrix(1,0,0,-1,0,841.92)" d="M .000008871 0 L 595.32 0 L 595.32 841.92 L .000008871 841.92 Z " fill-rule="evenodd"/>
</clipPath>
<g clip-path="url(#cp39)">
<text xml:space="preserve" transform="matrix(1 0 -0 1 0 841.92)" font-size="12" font-family="TimesNewRomanPSMT"><tspan y="-416.11" x="230.81 242.09 250.754 258.758 267.422 276.158 279.998 288.02598 292.45399 298.45399 301.78999 306.24198 312.34999 317.62998 323.62998 326.96598 332.29399 336.33799 341.61799 346.28599 349.62199 355.62199 360.94999 366.94999 371.36598 374.70198 380.02998 383.96598 387.30198 392.62998 398.62998 401.96598 408.07398 412.50199 418.50199 423.78199 429.78199 435.78199 439.11799 445.11799 449.56999 454.35798 459.63798 465.63798 471.02598 474.36198 480.36198 489.73399 494.162 502.826 511.442 520.10598 523.18997">WORKDIR di deklarasikan terlebih dahulu sebelum ADD, </tspan></text>
</g>
<clipPath id="cp40">
<path transform="matrix(1,0,0,-1,0,841.92)" d="M .000008871 0 L 595.32 0 L 595.32 841.92 L .000008871 841.92 Z " fill-rule="evenodd"/>
</clipPath>
<g clip-path="url(#cp40)">
<text xml:space="preserve" transform="matrix(1 0 -0 1 0 841.92)" font-size="12" font-family="TimesNewRomanPSMT"><tspan y="-395.45" x="108.02 119.3 127.964008 135.968 144.632 153.36801 157.20801 165.23601 170.024 176.024 181.304 185.3 191.3 197.3 203.37201 208.65201 213.44 219.44 225.44 228.776 234.776 240.776 245.588 254.924 260.25199 269.58799 275.58799 281.58799 286.86799 290.20399 295.016 303.68 309.68 313.616 319.616 322.952 328.952 334.952 339.764 345.764 349.1 353.096 358.364 363.644 366.98 372.98 376.976">WORKDIR berguna untuk membuat working directory</tspan></text>
</g>
<clipPath id="cp41">
<path transform="matrix(1,0,0,-1,0,841.92)" d="M .000008871 0 L 595.32 0 L 595.32 841.92 L .000008871 841.92 Z " fill-rule="evenodd"/>
</clipPath>
<g clip-path="url(#cp41)">
<text xml:space="preserve" transform="matrix(1 0 -0 1 0 841.92)" font-size="12" font-family="TimesNewRomanPSMT"><tspan y="-395.45" x="383.11 386.11 390.89799 399.646 404.926 408.262 413.59 419.59 425.59 431.59 437.59 442.354 451.69 457.018 461.686 465.022 471.142 475.93 479.266 484.594 487.93 493.21 499.21 503.998 509.998 513.334 518.002 523.33">, walaupun masih tetap bisa </tspan></text>
</g>
<clipPath id="cp42">
<path transform="matrix(1,0,0,-1,0,841.92)" d="M .000008871 0 L 595.32 0 L 595.32 841.92 L .000008871 841.92 Z " fill-rule="evenodd"/>
</clipPath>
<g clip-path="url(#cp42)">
<text xml:space="preserve" transform="matrix(1 0 -0 1 0 841.92)" font-size="12" font-family="TimesNewRomanPSMT"><tspan y="-374.69" x="108.02 114.02 117.355998 120.728 126.008 129.34401 134.67201 140.67201 146.67201 151.92801 157.92801 163.55602 169.55602 174.83602 184.17201 190.17201 196.17201 201.824 206.492 211.78401 217.06401 222.45201 226.52002 231.80002">dijalankan namun secara </tspan></text>
</g>
<clipPath id="cp43">
<path transform="matrix(1,0,0,-1,0,841.92)" d="M .000008871 0 L 595.32 0 L 595.32 841.92 L .000008871 841.92 Z " fill-rule="evenodd"/>
</clipPath>
<g clip-path="url(#cp43)">
<text xml:space="preserve" transform="matrix(1 0 -0 1 0 841.92)" font-size="12" font-family="TimesNewRomanPS" font-style="italic"><tspan y="-374.69" x="237.53 243.53 248.81 253.478 256.814 262.478 268.478 273.146 279.146 284.438 287.774 291.146 296.426 301.706">best practice </tspan></text>
</g>
<clipPath id="cp44">
<path transform="matrix(1,0,0,-1,0,841.92)" d="M .000008871 0 L 595.32 0 L 595.32 841.92 L .000008871 841.92 Z " fill-rule="evenodd"/>
</clipPath>
<g clip-path="url(#cp44)">
<text xml:space="preserve" transform="matrix(1 0 -0 1 0 841.92)" font-size="12" font-family="TimesNewRomanPSMT"><tspan y="-374.69" x="307.37 313.37 319.37 324.65 330.27799 338.942 347.666 356.33 361.934 367.934 371.27 376.922 382.922 388.922 394.202 397.538 403.19 407.858 413.15 416.486 421.814 425.15 430.43 436.43 442.05799 451.39399 456.722 462.722 468.722 473.978 479.978 483.314 488.642 492.578 497.858 502.526 505.862 511.862 517.19 523.286">nya ADD di buat setelah mendeklarasikan </tspan></text>
</g>
<clipPath id="cp45">
<path transform="matrix(1,0,0,-1,0,841.92)" d="M .000008871 0 L 595.32 0 L 595.32 841.92 L .000008871 841.92 Z " fill-rule="evenodd"/>
</clipPath>
<g clip-path="url(#cp45)">
<text xml:space="preserve" transform="matrix(1 0 -0 1 0 841.92)" font-size="12" font-family="TimesNewRomanPSMT"><tspan y="-354.05" x="108.02 119.3 127.964008 135.968 144.632 153.36801 157.20801 165.23601">WORKDIR,</tspan></text>
</g>
<clipPath id="cp46">
<path transform="matrix(1,0,0,-1,0,841.92)" d="M .000008871 0 L 595.32 0 L 595.32 841.92 L .000008871 841.92 Z " fill-rule="evenodd"/>
</clipPath>
<g clip-path="url(#cp46)">
<text xml:space="preserve" transform="matrix(1 0 -0 1 0 841.92)" font-size="12" font-family="TimesNewRomanPSMT"><tspan y="-354.05" x="168.38"> </tspan></text>
</g>
</g>
<g id="Layer-1" data-name="P">
<clipPath id="cp47">
<path transform="matrix(1,0,0,-1,0,841.92)" d="M .000008871 0 L 595.32 0 L 595.32 841.92 L .000008871 841.92 Z " fill-rule="evenodd"/>
</clipPath>
<g clip-path="url(#cp47)">
<text xml:space="preserve" transform="matrix(1 0 -0 1 0 841.92)" font-size="12" font-family="TimesNewRomanPSMT"><tspan y="-333.29" x="90.024 96.024">2.</tspan></text>
</g>
<clipPath id="cp48">
<path transform="matrix(1,0,0,-1,0,841.92)" d="M .000008871 0 L 595.32 0 L 595.32 841.92 L .000008871 841.92 Z " fill-rule="evenodd"/>
</clipPath>
<g clip-path="url(#cp48)">
<text xml:space="preserve" transform="matrix(1 0 -0 1 0 841.92)" font-size="12" font-family="ArialMT"><tspan y="-333.29" x="99.024"> </tspan></text>
</g>
<clipPath id="cp49">
<path transform="matrix(1,0,0,-1,0,841.92)" d="M .000008871 0 L 595.32 0 L 595.32 841.92 L .000008871 841.92 Z " fill-rule="evenodd"/>
</clipPath>
<g clip-path="url(#cp49)">
<text xml:space="preserve" transform="matrix(1 0 -0 1 0 841.92)" font-size="12" font-family="TimesNewRomanPSMT"><tspan y="-333.29" x="108.02 116.684 121.94 125.276 131.276 136.604">Value </tspan></text>
</g>
<clipPath id="cp50">
<path transform="matrix(1,0,0,-1,0,841.92)" d="M .000008871 0 L 595.32 0 L 595.32 841.92 L .000008871 841.92 Z " fill-rule="evenodd"/>
</clipPath>
<g clip-path="url(#cp50)">
<text xml:space="preserve" transform="matrix(1 0 -0 1 0 841.92)" font-size="12" font-family="TimesNewRomanPSMT"><tspan y="-333.29" x="141.74 149.072 155.072 158.408 162.404 168.404 174.404 180.404 183.74 189.74 193.076 198.248 202.916 208.20801 214.31601 219.59601 223.59201 229.66402 234.33202 240.33202 246.33202 251.62403">Entrypoint seharusnya </tspan></text>
</g>
<clipPath id="cp51">
<path transform="matrix(1,0,0,-1,0,841.92)" d="M .000008871 0 L 595.32 0 L 595.32 841.92 L .000008871 841.92 Z " fill-rule="evenodd"/>
</clipPath>
<g clip-path="url(#cp51)">
<text xml:space="preserve" transform="matrix(1 0 -0 1 0 841.92)" font-size="12" font-family="TimesNewRomanPSMT"><tspan y="-333.29" x="256.85 262.85 266.186 272.186 278.186 284.186 290.186 296.186 302.186 306.878 312.026 318.026 323.306 329.306 335.306 340.586 346.694">dibungkus dengan </tspan></text>
</g>
<clipPath id="cp52">
<path transform="matrix(1,0,0,-1,0,841.92)" d="M .000008871 0 L 595.32 0 L 595.32 841.92 L .000008871 841.92 Z " fill-rule="evenodd"/>
</clipPath>
<g clip-path="url(#cp52)">
<text xml:space="preserve" transform="matrix(1 0 -0 1 0 841.92)" font-size="12" font-family="TimesNewRomanPSMT"><tspan y="-333.29" x="352.03 358.03 364.03 368.026 374.026 379.99 385.99 391.138 397.138 403.138 407.134 412.378 421.126 426.406 429.742">kurung kurawal </tspan></text>
</g>
<clipPath id="cp53">
<path transform="matrix(1,0,0,-1,0,841.92)" d="M .000008871 0 L 595.32 0 L 595.32 841.92 L .000008871 841.92 Z " fill-rule="evenodd"/>
</clipPath>
<g clip-path="url(#cp53)">
<text xml:space="preserve" transform="matrix(1 0 -0 1 0 841.92)" font-size="12" font-family="TimesNewRomanPSMT"><tspan y="-333.29" x="434.95">[</tspan></text>
</g>
<clipPath id="cp54">
<path transform="matrix(1,0,0,-1,0,841.92)" d="M .000008871 0 L 595.32 0 L 595.32 841.92 L .000008871 841.92 Z " fill-rule="evenodd"/>
</clipPath>
<g clip-path="url(#cp54)">
<text xml:space="preserve" transform="matrix(1 0 -0 1 0 841.92)" font-size="12" font-family="TimesNewRomanPSMT"><tspan y="-333.29" x="438.94"> </tspan></text>
</g>
<clipPath id="cp55">
<path transform="matrix(1,0,0,-1,0,841.92)" d="M .000008871 0 L 595.32 0 L 595.32 841.92 L .000008871 841.92 Z " fill-rule="evenodd"/>
</clipPath>
<g clip-path="url(#cp55)">
<text xml:space="preserve" transform="matrix(1 0 -0 1 0 841.92)" font-size="12" font-family="TimesNewRomanPSMT"><tspan y="-333.29" x="444.22 448.216 453.328 459.328 464.608 470.716 475.864 481.864 487.864 491.2 494.57203">] dan kutip</tspan></text>
</g>
<clipPath id="cp56">
<path transform="matrix(1,0,0,-1,0,841.92)" d="M .000008871 0 L 595.32 0 L 595.32 841.92 L .000008871 841.92 Z " fill-rule="evenodd"/>
</clipPath>
<g clip-path="url(#cp56)">
<text xml:space="preserve" transform="matrix(1 0 -0 1 0 841.92)" font-size="12" font-family="TimesNewRomanPSMT"><tspan y="-333.29" x="500.62"> </tspan></text>
</g>
<clipPath id="cp57">
<path transform="matrix(1,0,0,-1,0,841.92)" d="M .000008871 0 L 595.32 0 L 595.32 841.92 L .000008871 841.92 Z " fill-rule="evenodd"/>
</clipPath>
<g clip-path="url(#cp57)">
<text xml:space="preserve" transform="matrix(1 0 -0 1 0 841.92)" font-size="12" font-family="TimesNewRomanPSMT"><tspan y="-333.29" x="505.78">&#x201c;</tspan></text>
</g>
<clipPath id="cp58">
<path transform="matrix(1,0,0,-1,0,841.92)" d="M .000008871 0 L 595.32 0 L 595.32 841.92 L .000008871 841.92 Z " fill-rule="evenodd"/>
</clipPath>
<g clip-path="url(#cp58)">
<text xml:space="preserve" transform="matrix(1 0 -0 1 0 841.92)" font-size="12" font-family="TimesNewRomanPSMT"><tspan y="-333.29" x="511.06">-</tspan></text>
</g>
<clipPath id="cp59">
<path transform="matrix(1,0,0,-1,0,841.92)" d="M .000008871 0 L 595.32 0 L 595.32 841.92 L .000008871 841.92 Z " fill-rule="evenodd"/>
</clipPath>
<g clip-path="url(#cp59)">
<text xml:space="preserve" transform="matrix(1 0 -0 1 0 841.92)" font-size="12" font-family="TimesNewRomanPSMT"><tspan y="-333.29" x="515.02">&#x201d;</tspan></text>
</g>
<clipPath id="cp60">
<path transform="matrix(1,0,0,-1,0,841.92)" d="M .000008871 0 L 595.32 0 L 595.32 841.92 L .000008871 841.92 Z " fill-rule="evenodd"/>
</clipPath>
<g clip-path="url(#cp60)">
<text xml:space="preserve" transform="matrix(1 0 -0 1 0 841.92)" font-size="12" font-family="TimesNewRomanPSMT"><tspan y="-333.29" x="520.3 523.42">, </tspan></text>
</g>
<clipPath id="cp61">
<path transform="matrix(1,0,0,-1,0,841.92)" d="M .000008871 0 L 595.32 0 L 595.32 841.92 L .000008871 841.92 Z " fill-rule="evenodd"/>
</clipPath>
<g clip-path="url(#cp61)">
<text xml:space="preserve" transform="matrix(1 0 -0 1 0 841.92)" font-size="12" font-family="TimesNewRomanPSMT"><tspan y="-312.65" x="108.02 113.3 119.3 125.3 128.636 134.636 140.636 143.636 147.632">contoh [&#x201c;</tspan></text>
</g>
<clipPath id="cp62">
<path transform="matrix(1,0,0,-1,0,841.92)" d="M .000008871 0 L 595.32 0 L 595.32 841.92 L .000008871 841.92 Z " fill-rule="evenodd"/>
</clipPath>
<g clip-path="url(#cp62)">
<text xml:space="preserve" transform="matrix(1 0 -0 1 0 841.92)" font-size="12" font-family="TimesNewRomanPSMT"><tspan y="-312.65" x="152.9 156.236 162.236 168.236 171.60799 177.60799 180.94399 186.94399 190.31598 193.65198 199.65198 205.65198 209.02397 215.02397 221.02397 230.26398">/go/bin/indihome</tspan></text>
</g>
<clipPath id="cp63">
<path transform="matrix(1,0,0,-1,0,841.92)" d="M .000008871 0 L 595.32 0 L 595.32 841.92 L .000008871 841.92 Z " fill-rule="evenodd"/>
</clipPath>
<g clip-path="url(#cp63)">
<text xml:space="preserve" transform="matrix(1 0 -0 1 0 841.92)" font-size="12" font-family="TimesNewRomanPSMT"><tspan y="-312.65" x="235.61 240.89">&#x201d;]</tspan></text>
</g>
<clipPath id="cp64">
<path transform="matrix(1,0,0,-1,0,841.92)" d="M .000008871 0 L 595.32 0 L 595.32 841.92 L .000008871 841.92 Z " fill-rule="evenodd"/>
</clipPath>
<g clip-path="url(#cp64)">
<text xml:space="preserve" transform="matrix(1 0 -0 1 0 841.92)" font-size="12" font-family="TimesNewRomanPSMT"><tspan y="-312.65" x="244.85">,</tspan></text>
</g>
<clipPath id="cp65">
<path transform="matrix(1,0,0,-1,0,841.92)" d="M .000008871 0 L 595.32 0 L 595.32 841.92 L .000008871 841.92 Z " fill-rule="evenodd"/>
</clipPath>
<g clip-path="url(#cp65)">
<text xml:space="preserve" transform="matrix(1 0 -0 1 0 841.92)" font-size="12" font-family="TimesNewRomanPSMT"><tspan y="-312.65" x="247.97"> </tspan></text>
</g>
</g>
<g id="Layer-1" data-name="P">
<clipPath id="cp66">
<path transform="matrix(1,0,0,-1,0,841.92)" d="M .000008871 0 L 595.32 0 L 595.32 841.92 L .000008871 841.92 Z " fill-rule="evenodd"/>
</clipPath>
<g clip-path="url(#cp66)">
<text xml:space="preserve" transform="matrix(1 0 -0 1 0 841.92)" font-size="12" font-family="TimesNewRomanPSMT"><tspan y="-291.89" x="90.024 96.024">3.</tspan></text>
</g>
<clipPath id="cp67">
<path transform="matrix(1,0,0,-1,0,841.92)" d="M .000008871 0 L 595.32 0 L 595.32 841.92 L .000008871 841.92 Z " fill-rule="evenodd"/>
</clipPath>
<g clip-path="url(#cp67)">
<text xml:space="preserve" transform="matrix(1 0 -0 1 0 841.92)" font-size="12" font-family="ArialMT"><tspan y="-291.89" x="99.024"> </tspan></text>
</g>
<clipPath id="cp68">
<path transform="matrix(1,0,0,-1,0,841.92)" d="M .000008871 0 L 595.32 0 L 595.32 841.92 L .000008871 841.92 Z " fill-rule="evenodd"/>
</clipPath>
<g clip-path="url(#cp68)">
<text xml:space="preserve" transform="matrix(1 0 -0 1 0 841.92)" font-size="12" font-family="TimesNewRomanPSMT"><tspan y="-291.89" x="108.02 116.684 122.684 126.02 132.01999 138.01999 143.648 150.98 154.808 161.51599 168.84799 176.18 184.79599 190.424 193.76 197.13199 203.13199 208.41199 214.41199 220.04 225.428 231.428 236.708 242.336 248.336 251.672 257.672 263 266.336 271.616 280.952 286.604 295.94 301.268 304.604 310.604 316.604 322.604 328.232 336.896 342.896 348.152 354.152 359.432 363.428 367.35203 370.68803 374.06004 379.34004 382.34004 387.96803 395.39604 399.23603 405.94404 413.27604 420.60804 429.22404 434.85203 440.85203 444.18803 449.84004 455.12004 458.45603 464.45603 468.54804 474.17604 478.84403 484.13603 489.41603 492.752 498.40403 501.74003 507.74003 513.74 517.112 523.112">Untuk LISTEN tidak ada didalam method Dockerfile. LISTEN di atur saat ingin </tspan></text>
</g>
<clipPath id="cp69">
<path transform="matrix(1,0,0,-1,0,841.92)" d="M .000008871 0 L 595.32 0 L 595.32 841.92 L .000008871 841.92 Z " fill-rule="evenodd"/>
</clipPath>
<g clip-path="url(#cp69)">
<text xml:space="preserve" transform="matrix(1 0 -0 1 0 841.92)" font-size="12" font-family="TimesNewRomanPSMT"><tspan y="-271.25" x="108.02 117.355998 122.684 128.68399 132.01999 137.29999 140.63599 145.96399 151.96399 157.96399 163.21999 169.21999 173.64798 176.98398 186.35597 191.63597 197.74398 203.02397 207.45197 216.78797 222.11597 225.55997 230.83997 234.17597 240.17597 243.54796 247.97595 251.31195 256.63996 260.57597 269.91197 273.28398 279.28398 284.56398 287.89997 290.89997 295.35197 302.05998 307.33998 313.33998 318.61997 322.61598 328.61598 333.28398 339.28398 345.36799 350.64799 355.076 362.504 366.344 373.052 380.384 387.716 396.332 400.76 406.76 410.096 416.096 421.424 427.424 430.76 434.096 438.548 444.656 449.936 455.936 461.936 467.324 473.324 477.752 485.084 493.712 500.42 509.084 515.75607 523.088">menjalankan image melalui terminal, Seharusnya LISTEN diganti dengan EXPOSE </tspan></text>
</g>
<clipPath id="cp70">
<path transform="matrix(1,0,0,-1,0,841.92)" d="M .000008871 0 L 595.32 0 L 595.32 841.92 L .000008871 841.92 Z " fill-rule="evenodd"/>
</clipPath>
<g clip-path="url(#cp70)">
<text xml:space="preserve" transform="matrix(1 0 -0 1 0 841.92)" font-size="12" font-family="TimesNewRomanPSMT"><tspan y="-250.49" x="108.02 114.02 120.02 126.02 132.01999 135.01999 141.01999 147.01999 150.35599 156.35599 162.35599 165.35599 170.02399 175.35199 178.68799 184.68799 190.68799">8080 untuk setup </tspan></text>
</g>
<clipPath id="cp71">
<path transform="matrix(1,0,0,-1,0,841.92)" d="M .000008871 0 L 595.32 0 L 595.32 841.92 L .000008871 841.92 Z " fill-rule="evenodd"/>
</clipPath>
<g clip-path="url(#cp71)">
<text xml:space="preserve" transform="matrix(1 0 -0 1 0 841.92)" font-size="12" font-family="TimesNewRomanPSMT"><tspan y="-250.49" x="193.73 199.73 205.01 209.006 214.25 220.25 223.586">default</tspan></text>
</g>
<clipPath id="cp72">
<path transform="matrix(1,0,0,-1,0,841.92)" d="M .000008871 0 L 595.32 0 L 595.32 841.92 L .000008871 841.92 Z " fill-rule="evenodd"/>
</clipPath>
<g clip-path="url(#cp72)">
<text xml:space="preserve" transform="matrix(1 0 -0 1 0 841.92)" font-size="12" font-family="TimesNewRomanPSMT"><tspan y="-250.49" x="226.97"> </tspan></text>
</g>
<clipPath id="cp73">
<path transform="matrix(1,0,0,-1,0,841.92)" d="M .000008871 0 L 595.32 0 L 595.32 841.92 L .000008871 841.92 Z " fill-rule="evenodd"/>
</clipPath>
<g clip-path="url(#cp73)">
<text xml:space="preserve" transform="matrix(1 0 -0 1 0 841.92)" font-size="12" font-family="TimesNewRomanPSMT"><tspan y="-250.49" x="230.09 236.09 242.09 246.086 249.422 252.422 258.422 263.69 269.69 275.69">port yang </tspan></text>
</g>
<clipPath id="cp74">
<path transform="matrix(1,0,0,-1,0,841.92)" d="M .000008871 0 L 595.32 0 L 595.32 841.92 L .000008871 841.92 Z " fill-rule="evenodd"/>
</clipPath>
<g clip-path="url(#cp74)">
<text xml:space="preserve" transform="matrix(1 0 -0 1 0 841.92)" font-size="12" font-family="TimesNewRomanPSMT"><tspan y="-250.49" x="278.69 282.026 288.026 294.026 297.398 303.398">ingin </tspan></text>
</g>
<clipPath id="cp75">
<path transform="matrix(1,0,0,-1,0,841.92)" d="M .000008871 0 L 595.32 0 L 595.32 841.92 L .000008871 841.92 Z " fill-rule="evenodd"/>
</clipPath>
<g clip-path="url(#cp75)">
<text xml:space="preserve" transform="matrix(1 0 -0 1 0 841.92)" font-size="12" font-family="TimesNewRomanPSMT"><tspan y="-250.49" x="306.41 312.41 315.746 321.746 327.074 333.074 338.33003">dipakai</tspan></text>
</g>
<clipPath id="cp76">
<path transform="matrix(1,0,0,-1,0,841.92)" d="M .000008871 0 L 595.32 0 L 595.32 841.92 L .000008871 841.92 Z " fill-rule="evenodd"/>
</clipPath>
<g clip-path="url(#cp76)">
<text xml:space="preserve" transform="matrix(1 0 -0 1 0 841.92)" font-size="12" font-family="TimesNewRomanPSMT"><tspan y="-250.49" x="341.71"> </tspan></text>
</g>
</g>
<g id="Layer-1" data-name="P">
<clipPath id="cp77">
<path transform="matrix(1,0,0,-1,0,841.92)" d="M .000008871 0 L 595.32 0 L 595.32 841.92 L .000008871 841.92 Z " fill-rule="evenodd"/>
</clipPath>
<g clip-path="url(#cp77)">
<text xml:space="preserve" transform="matrix(1 0 -0 1 0 841.92)" font-size="12" font-family="TimesNewRomanPSMT"><tspan y="-221.78" x="72.024 80.052 86.052 92.052 95.388 101.388 107.388 110.388 117.119998 123.119998 127.116 130.452 136.452 139.788 142.788 148.788 154.08 160.08 166.08 169.08 173.748 179.04001 185.04001 190.32 193.32 199.32 204.6 208.59601 214.59601 219.84001 223.17601 229.17601">Contoh Skript yang saya perbaiki</tspan></text>
</g>
<clipPath id="cp78">
<path transform="matrix(1,0,0,-1,0,841.92)" d="M .000008871 0 L 595.32 0 L 595.32 841.92 L .000008871 841.92 Z " fill-rule="evenodd"/>
</clipPath>
<g clip-path="url(#cp78)">
<text xml:space="preserve" transform="matrix(1 0 -0 1 0 841.92)" font-size="12" font-family="TimesNewRomanPSMT"><tspan y="-221.78" x="232.73"> </tspan></text>
</g>
</g>
<g id="Layer-1" data-name="P">
<path transform="matrix(1,0,0,-1,0,841.92)" d="M 70.584 189.98 L 524.854 189.98 L 524.854 202.34 L 70.584 202.34 Z " fill="#282828" fill-rule="evenodd"/>
</g>
<g id="Layer-1" data-name="P">
<clipPath id="cp79">
<path transform="matrix(1,0,0,-1,0,841.92)" d="M .000008871 0 L 595.32 0 L 595.32 841.92 L .000008871 841.92 Z " fill-rule="evenodd"/>
</clipPath>
<g clip-path="url(#cp79)">
<text fill="#c586c0" xml:space="preserve" transform="matrix(1 0 -0 1 0 841.92)" font-size="10.56" font-family="Consolas"><tspan y="-192.62" x="72.024 77.784008 83.54401 89.30401">FROM</tspan></text>
</g>
<clipPath id="cp80">
<path transform="matrix(1,0,0,-1,0,841.92)" d="M .000008871 0 L 595.32 0 L 595.32 841.92 L .000008871 841.92 Z " fill-rule="evenodd"/>
</clipPath>
<g clip-path="url(#cp80)">
<text fill="#dcdcdc" xml:space="preserve" transform="matrix(1 0 -0 1 0 841.92)" font-size="10.56" font-family="Consolas"><tspan y="-192.62" x="95.064"> </tspan></text>
</g>
<clipPath id="cp81">
<path transform="matrix(1,0,0,-1,0,841.92)" d="M .000008871 0 L 595.32 0 L 595.32 841.92 L .000008871 841.92 Z " fill-rule="evenodd"/>
</clipPath>
<g clip-path="url(#cp81)">
<text fill="#4ec9b0" xml:space="preserve" transform="matrix(1 0 -0 1 0 841.92)" font-size="10.56" font-family="Consolas"><tspan y="-192.62" x="100.82 106.58 112.340007 118.100009 123.86001 129.62001">golang</tspan></text>
</g>
<clipPath id="cp82">
<path transform="matrix(1,0,0,-1,0,841.92)" d="M .000008871 0 L 595.32 0 L 595.32 841.92 L .000008871 841.92 Z " fill-rule="evenodd"/>
</clipPath>
<g clip-path="url(#cp82)">
<text fill="#dcdcdc" xml:space="preserve" transform="matrix(1 0 -0 1 0 841.92)" font-size="10.56" font-family="Consolas"><tspan y="-192.62" x="135.38"> </tspan></text>
</g>
<clipPath id="cp83">
<path transform="matrix(1,0,0,-1,0,841.92)" d="M .000008871 0 L 595.32 0 L 595.32 841.92 L .000008871 841.92 Z " fill-rule="evenodd"/>
</clipPath>
<g clip-path="url(#cp83)">
<text fill="#dcdcdc" xml:space="preserve" transform="matrix(1 0 -0 1 0 841.92)" font-size="10.56" font-family="Consolas"><tspan y="-192.62" x="141.26"> </tspan></text>
</g>
<clipPath id="cp84">
<path transform="matrix(1,0,0,-1,0,841.92)" d="M .000008871 0 L 595.32 0 L 595.32 841.92 L .000008871 841.92 Z " fill-rule="evenodd"/>
</clipPath>
<g clip-path="url(#cp84)">
</g>
</g>
<g id="Layer-1" data-name="P">
<path transform="matrix(1,0,0,-1,0,841.92)" d="M 70.584 175.82 L 524.854 175.82 L 524.854 189.98001 L 70.584 189.98001 Z " fill="#282828" fill-rule="evenodd"/>
</g>
<g id="Layer-1" data-name="P">
<clipPath id="cp85">
<path transform="matrix(1,0,0,-1,0,841.92)" d="M .000008871 0 L 595.32 0 L 595.32 841.92 L .000008871 841.92 Z " fill-rule="evenodd"/>
</clipPath>
<g clip-path="url(#cp85)">
<text fill="#dcdcdc" xml:space="preserve" transform="matrix(1 0 -0 1 0 841.92)" font-size="10.56" font-family="Consolas"><tspan y="-178.46" x="72.024"> </tspan></text>
</g>
<clipPath id="cp86">
<path transform="matrix(1,0,0,-1,0,841.92)" d="M .000008871 0 L 595.32 0 L 595.32 841.92 L .000008871 841.92 Z " fill-rule="evenodd"/>
</clipPath>
<g clip-path="url(#cp86)">
</g>
</g>
<g id="Layer-1" data-name="P">
<path transform="matrix(1,0,0,-1,0,841.92)" d="M 70.584 161.54 L 524.854 161.54 L 524.854 175.81999 L 70.584 175.81999 Z " fill="#282828" fill-rule="evenodd"/>
</g>
<g id="Layer-1" data-name="P">
<clipPath id="cp87">
<path transform="matrix(1,0,0,-1,0,841.92)" d="M .000008871 0 L 595.32 0 L 595.32 841.92 L .000008871 841.92 Z " fill-rule="evenodd"/>
</clipPath>
<g clip-path="url(#cp87)">
<text fill="#c586c0" xml:space="preserve" transform="matrix(1 0 -0 1 0 841.92)" font-size="10.56" font-family="Consolas"><tspan y="-164.18" x="72.024 77.784008 83.54401 89.30401 95.06401 100.82401 106.584018">WORKDIR</tspan></text>
</g>
<clipPath id="cp88">
<path transform="matrix(1,0,0,-1,0,841.92)" d="M .000008871 0 L 595.32 0 L 595.32 841.92 L .000008871 841.92 Z " fill-rule="evenodd"/>
</clipPath>
<g clip-path="url(#cp88)">
<text fill="#dcdcdc" xml:space="preserve" transform="matrix(1 0 -0 1 0 841.92)" font-size="10.56" font-family="Consolas"><tspan y="-164.18" x="112.34"> </tspan></text>
</g>
<clipPath id="cp89">
<path transform="matrix(1,0,0,-1,0,841.92)" d="M .000008871 0 L 595.32 0 L 595.32 841.92 L .000008871 841.92 Z " fill-rule="evenodd"/>
</clipPath>
<g clip-path="url(#cp89)">
<text fill="#9cdcfe" xml:space="preserve" transform="matrix(1 0 -0 1 0 841.92)" font-size="10.56" font-family="Consolas"><tspan y="-164.18" x="118.1 123.855197 129.6104 135.3656 141.1208 146.99216 152.74736 158.50257 164.25777 170.01297 175.76818 181.52338 187.27858 193.14994 198.90514 204.66034 210.41555 216.17075 221.92595 227.68115 233.43636 239.19156 244.94676 250.70197 256.45719 262.2124 268.08378 273.839 279.5942 285.34944 291.10466 296.85987 302.61509 308.3703 314.24168 319.9969 325.7521">/go/src/github.com/telkomdev/indihome</tspan></text>
</g>
<clipPath id="cp90">
<path transform="matrix(1,0,0,-1,0,841.92)" d="M .000008871 0 L 595.32 0 L 595.32 841.92 L .000008871 841.92 Z " fill-rule="evenodd"/>
</clipPath>
<g clip-path="url(#cp90)">
<text fill="#dcdcdc" xml:space="preserve" transform="matrix(1 0 -0 1 0 841.92)" font-size="10.56" font-family="Consolas"><tspan y="-164.18" x="331.75"> </tspan></text>
</g>
<clipPath id="cp91">
<path transform="matrix(1,0,0,-1,0,841.92)" d="M .000008871 0 L 595.32 0 L 595.32 841.92 L .000008871 841.92 Z " fill-rule="evenodd"/>
</clipPath>
<g clip-path="url(#cp91)">
<text fill="#dcdcdc" xml:space="preserve" transform="matrix(1 0 -0 1 0 841.92)" font-size="10.56" font-family="Consolas"><tspan y="-164.18" x="337.51"> </tspan></text>
</g>
<clipPath id="cp92">
<path transform="matrix(1,0,0,-1,0,841.92)" d="M .000008871 0 L 595.32 0 L 595.32 841.92 L .000008871 841.92 Z " fill-rule="evenodd"/>
</clipPath>
<g clip-path="url(#cp92)">
</g>
</g>
<g id="Layer-1" data-name="P">
<path transform="matrix(1,0,0,-1,0,841.92)" d="M 70.584 147.26 L 524.854 147.26 L 524.854 161.54 L 70.584 161.54 Z " fill="#282828" fill-rule="evenodd"/>
</g>
<g id="Layer-1" data-name="P">
<clipPath id="cp93">
<path transform="matrix(1,0,0,-1,0,841.92)" d="M .000008871 0 L 595.32 0 L 595.32 841.92 L .000008871 841.92 Z " fill-rule="evenodd"/>
</clipPath>
<g clip-path="url(#cp93)">
<text fill="#c586c0" xml:space="preserve" transform="matrix(1 0 -0 1 0 841.92)" font-size="10.56" font-family="Consolas"><tspan y="-149.9" x="72.024 77.784008 83.54401">ADD</tspan></text>
</g>
<clipPath id="cp94">
<path transform="matrix(1,0,0,-1,0,841.92)" d="M .000008871 0 L 595.32 0 L 595.32 841.92 L .000008871 841.92 Z " fill-rule="evenodd"/>
</clipPath>
<g clip-path="url(#cp94)">
<text fill="#dcdcdc" xml:space="preserve" transform="matrix(1 0 -0 1 0 841.92)" font-size="10.56" font-family="Consolas"><tspan y="-149.9" x="89.304"> </tspan></text>
</g>
<clipPath id="cp95">
<path transform="matrix(1,0,0,-1,0,841.92)" d="M .000008871 0 L 595.32 0 L 595.32 841.92 L .000008871 841.92 Z " fill-rule="evenodd"/>
</clipPath>
<g clip-path="url(#cp95)">
<text fill="#9cdcfe" xml:space="preserve" transform="matrix(1 0 -0 1 0 841.92)" font-size="10.56" font-family="Consolas"><tspan y="-149.9" x="95.064">.</tspan></text>
</g>
<clipPath id="cp96">
<path transform="matrix(1,0,0,-1,0,841.92)" d="M .000008871 0 L 595.32 0 L 595.32 841.92 L .000008871 841.92 Z " fill-rule="evenodd"/>
</clipPath>
<g clip-path="url(#cp96)">
<text fill="#dcdcdc" xml:space="preserve" transform="matrix(1 0 -0 1 0 841.92)" font-size="10.56" font-family="Consolas"><tspan y="-149.9" x="100.82"> </tspan></text>
</g>
<clipPath id="cp97">
<path transform="matrix(1,0,0,-1,0,841.92)" d="M .000008871 0 L 595.32 0 L 595.32 841.92 L .000008871 841.92 Z " fill-rule="evenodd"/>
</clipPath>
<g clip-path="url(#cp97)">
<text fill="#9cdcfe" xml:space="preserve" transform="matrix(1 0 -0 1 0 841.92)" font-size="10.56" font-family="Consolas"><tspan y="-149.9" x="106.58 112.3352 118.09039 123.84559 129.6008 135.356 141.1112 146.98256 152.73777 158.49297 164.24817 170.00337 175.75858 181.51378 187.26898 193.14034 198.89554 204.65074 210.40595 216.16115 221.91635 227.67156 233.42676 239.18196 244.93717 250.69237 256.44758 262.2028 268.07417 273.82939 279.5846 285.3398 291.09504 296.85026 302.60548 308.3607 314.23207 319.98728 325.7425 331.4977 337.25294 343.00816 348.76338 354.5186 360.2738">/go/src/github.com/telkomdev/indihome/backend</tspan></text>
</g>
<clipPath id="cp98">
<path transform="matrix(1,0,0,-1,0,841.92)" d="M .000008871 0 L 595.32 0 L 595.32 841.92 L .000008871 841.92 Z " fill-rule="evenodd"/>
</clipPath>
<g clip-path="url(#cp98)">
<text fill="#dcdcdc" xml:space="preserve" transform="matrix(1 0 -0 1 0 841.92)" font-size="10.56" font-family="Consolas"><tspan y="-149.9" x="366.31"> </tspan></text>
</g>
<clipPath id="cp99">
<path transform="matrix(1,0,0,-1,0,841.92)" d="M .000008871 0 L 595.32 0 L 595.32 841.92 L .000008871 841.92 Z " fill-rule="evenodd"/>
</clipPath>
<g clip-path="url(#cp99)">
<text fill="#dcdcdc" xml:space="preserve" transform="matrix(1 0 -0 1 0 841.92)" font-size="10.56" font-family="Consolas"><tspan y="-149.9" x="372.19"> </tspan></text>
</g>
<clipPath id="cp100">
<path transform="matrix(1,0,0,-1,0,841.92)" d="M .000008871 0 L 595.32 0 L 595.32 841.92 L .000008871 841.92 Z " fill-rule="evenodd"/>
</clipPath>
<g clip-path="url(#cp100)">
</g>
</g>
<g id="Layer-1" data-name="P">
<path transform="matrix(1,0,0,-1,0,841.92)" d="M 70.584 132.98 L 524.854 132.98 L 524.854 147.26 L 70.584 147.26 Z " fill="#282828" fill-rule="evenodd"/>
</g>
<g id="Layer-1" data-name="P">
<clipPath id="cp101">
<path transform="matrix(1,0,0,-1,0,841.92)" d="M .000008871 0 L 595.32 0 L 595.32 841.92 L .000008871 841.92 Z " fill-rule="evenodd"/>
</clipPath>
<g clip-path="url(#cp101)">
<text fill="#c586c0" xml:space="preserve" transform="matrix(1 0 -0 1 0 841.92)" font-size="10.56" font-family="Consolas"><tspan y="-135.62" x="72.024 77.784008 83.54401">RUN</tspan></text>
</g>
<clipPath id="cp102">
<path transform="matrix(1,0,0,-1,0,841.92)" d="M .000008871 0 L 595.32 0 L 595.32 841.92 L .000008871 841.92 Z " fill-rule="evenodd"/>
</clipPath>
<g clip-path="url(#cp102)">
<text fill="#dcdcdc" xml:space="preserve" transform="matrix(1 0 -0 1 0 841.92)" font-size="10.56" font-family="Consolas"><tspan y="-135.62" x="89.304"> </tspan></text>
</g>
<clipPath id="cp103">
<path transform="matrix(1,0,0,-1,0,841.92)" d="M .000008871 0 L 595.32 0 L 595.32 841.92 L .000008871 841.92 Z " fill-rule="evenodd"/>
</clipPath>
<g clip-path="url(#cp103)">
<text fill="#9cdcfe" xml:space="preserve" transform="matrix(1 0 -0 1 0 841.92)" font-size="10.56" font-family="Consolas"><tspan y="-135.62" x="95.064 100.824008">go</tspan></text>
</g>
<clipPath id="cp104">
<path transform="matrix(1,0,0,-1,0,841.92)" d="M .000008871 0 L 595.32 0 L 595.32 841.92 L .000008871 841.92 Z " fill-rule="evenodd"/>
</clipPath>
<g clip-path="url(#cp104)">
<text fill="#dcdcdc" xml:space="preserve" transform="matrix(1 0 -0 1 0 841.92)" font-size="10.56" font-family="Consolas"><tspan y="-135.62" x="106.58"> </tspan></text>
</g>
<clipPath id="cp105">
<path transform="matrix(1,0,0,-1,0,841.92)" d="M .000008871 0 L 595.32 0 L 595.32 841.92 L .000008871 841.92 Z " fill-rule="evenodd"/>
</clipPath>
<g clip-path="url(#cp105)">
<text fill="#9cdcfe" xml:space="preserve" transform="matrix(1 0 -0 1 0 841.92)" font-size="10.56" font-family="Consolas"><tspan y="-135.62" x="112.34 118.1 123.86">get</tspan></text>
</g>
<clipPath id="cp106">
<path transform="matrix(1,0,0,-1,0,841.92)" d="M .000008871 0 L 595.32 0 L 595.32 841.92 L .000008871 841.92 Z " fill-rule="evenodd"/>
</clipPath>
<g clip-path="url(#cp106)">
<text fill="#dcdcdc" xml:space="preserve" transform="matrix(1 0 -0 1 0 841.92)" font-size="10.56" font-family="Consolas"><tspan y="-135.62" x="129.62"> </tspan></text>
</g>
<clipPath id="cp107">
<path transform="matrix(1,0,0,-1,0,841.92)" d="M .000008871 0 L 595.32 0 L 595.32 841.92 L .000008871 841.92 Z " fill-rule="evenodd"/>
</clipPath>
<g clip-path="url(#cp107)">
<text fill="#9cdcfe" xml:space="preserve" transform="matrix(1 0 -0 1 0 841.92)" font-size="10.56" font-family="Consolas"><tspan y="-135.62" x="135.38 141.13521 147.00656 152.76177 158.51697 164.27217 170.02738 175.78258 181.53778 187.29299 193.16434 198.91954 204.67475 210.42995 216.18515 221.94036 227.69556 233.45076 239.20597 244.96117 250.71637 256.4716">github.com/tools/godep</tspan></text>
</g>
<clipPath id="cp108">
<path transform="matrix(1,0,0,-1,0,841.92)" d="M .000008871 0 L 595.32 0 L 595.32 841.92 L .000008871 841.92 Z " fill-rule="evenodd"/>
</clipPath>
<g clip-path="url(#cp108)">
<text fill="#dcdcdc" xml:space="preserve" transform="matrix(1 0 -0 1 0 841.92)" font-size="10.56" font-family="Consolas"><tspan y="-135.62" x="262.37"> </tspan></text>
</g>
<clipPath id="cp109">
<path transform="matrix(1,0,0,-1,0,841.92)" d="M .000008871 0 L 595.32 0 L 595.32 841.92 L .000008871 841.92 Z " fill-rule="evenodd"/>
</clipPath>
<g clip-path="url(#cp109)">
<text fill="#dcdcdc" xml:space="preserve" transform="matrix(1 0 -0 1 0 841.92)" font-size="10.56" font-family="Consolas"><tspan y="-135.62" x="268.25"> </tspan></text>
</g>
<clipPath id="cp110">
<path transform="matrix(1,0,0,-1,0,841.92)" d="M .000008871 0 L 595.32 0 L 595.32 841.92 L .000008871 841.92 Z " fill-rule="evenodd"/>
</clipPath>
<g clip-path="url(#cp110)">
</g>
</g>
<g id="Layer-1" data-name="P">
<path transform="matrix(1,0,0,-1,0,841.92)" d="M 70.584 118.82 L 524.854 118.82 L 524.854 132.98 L 70.584 132.98 Z " fill="#282828" fill-rule="evenodd"/>
</g>
<g id="Layer-1" data-name="P">
<clipPath id="cp111">
<path transform="matrix(1,0,0,-1,0,841.92)" d="M .000008871 0 L 595.32 0 L 595.32 841.92 L .000008871 841.92 Z " fill-rule="evenodd"/>
</clipPath>
<g clip-path="url(#cp111)">
<text fill="#c586c0" xml:space="preserve" transform="matrix(1 0 -0 1 0 841.92)" font-size="10.56" font-family="Consolas"><tspan y="-121.46" x="72.024 77.784008 83.54401">RUN</tspan></text>
</g>
<clipPath id="cp112">
<path transform="matrix(1,0,0,-1,0,841.92)" d="M .000008871 0 L 595.32 0 L 595.32 841.92 L .000008871 841.92 Z " fill-rule="evenodd"/>
</clipPath>
<g clip-path="url(#cp112)">
<text fill="#dcdcdc" xml:space="preserve" transform="matrix(1 0 -0 1 0 841.92)" font-size="10.56" font-family="Consolas"><tspan y="-121.46" x="89.304"> </tspan></text>
</g>
<clipPath id="cp113">
<path transform="matrix(1,0,0,-1,0,841.92)" d="M .000008871 0 L 595.32 0 L 595.32 841.92 L .000008871 841.92 Z " fill-rule="evenodd"/>
</clipPath>
<g clip-path="url(#cp113)">
<text fill="#9cdcfe" xml:space="preserve" transform="matrix(1 0 -0 1 0 841.92)" font-size="10.56" font-family="Consolas"><tspan y="-121.46" x="95.064 100.824008 106.58401 112.34401 118.10401">godep</tspan></text>
</g>
<clipPath id="cp114">
<path transform="matrix(1,0,0,-1,0,841.92)" d="M .000008871 0 L 595.32 0 L 595.32 841.92 L .000008871 841.92 Z " fill-rule="evenodd"/>
</clipPath>
<g clip-path="url(#cp114)">
<text fill="#dcdcdc" xml:space="preserve" transform="matrix(1 0 -0 1 0 841.92)" font-size="10.56" font-family="Consolas"><tspan y="-121.46" x="123.86"> </tspan></text>
</g>
<clipPath id="cp115">
<path transform="matrix(1,0,0,-1,0,841.92)" d="M .000008871 0 L 595.32 0 L 595.32 841.92 L .000008871 841.92 Z " fill-rule="evenodd"/>
</clipPath>
<g clip-path="url(#cp115)">
<text fill="#9cdcfe" xml:space="preserve" transform="matrix(1 0 -0 1 0 841.92)" font-size="10.56" font-family="Consolas"><tspan y="-121.46" x="129.62 135.3752 141.1304 147.00176 152.75696 158.51216 164.26737">restore</tspan></text>
</g>
<clipPath id="cp116">
<path transform="matrix(1,0,0,-1,0,841.92)" d="M .000008871 0 L 595.32 0 L 595.32 841.92 L .000008871 841.92 Z " fill-rule="evenodd"/>
</clipPath>
<g clip-path="url(#cp116)">
<text fill="#dcdcdc" xml:space="preserve" transform="matrix(1 0 -0 1 0 841.92)" font-size="10.56" font-family="Consolas"><tspan y="-121.46" x="170.06"> </tspan></text>
</g>
<clipPath id="cp117">
<path transform="matrix(1,0,0,-1,0,841.92)" d="M .000008871 0 L 595.32 0 L 595.32 841.92 L .000008871 841.92 Z " fill-rule="evenodd"/>
</clipPath>
<g clip-path="url(#cp117)">
<text fill="#dcdcdc" xml:space="preserve" transform="matrix(1 0 -0 1 0 841.92)" font-size="10.56" font-family="Consolas"><tspan y="-121.46" x="175.94"> </tspan></text>
</g>
<clipPath id="cp118">
<path transform="matrix(1,0,0,-1,0,841.92)" d="M .000008871 0 L 595.32 0 L 595.32 841.92 L .000008871 841.92 Z " fill-rule="evenodd"/>
</clipPath>
<g clip-path="url(#cp118)">
</g>
</g>
<g id="Layer-1" data-name="P">
<path transform="matrix(1,0,0,-1,0,841.92)" d="M 70.584 104.54 L 524.854 104.54 L 524.854 118.82 L 70.584 118.82 Z " fill="#282828" fill-rule="evenodd"/>
</g>
<g id="Layer-1" data-name="P">
<clipPath id="cp119">
<path transform="matrix(1,0,0,-1,0,841.92)" d="M .000008871 0 L 595.32 0 L 595.32 841.92 L .000008871 841.92 Z " fill-rule="evenodd"/>
</clipPath>
<g clip-path="url(#cp119)">
<text fill="#c586c0" xml:space="preserve" transform="matrix(1 0 -0 1 0 841.92)" font-size="10.56" font-family="Consolas"><tspan y="-107.18" x="72.024 77.784008 83.54401">RUN</tspan></text>
</g>
<clipPath id="cp120">
<path transform="matrix(1,0,0,-1,0,841.92)" d="M .000008871 0 L 595.32 0 L 595.32 841.92 L .000008871 841.92 Z " fill-rule="evenodd"/>
</clipPath>
<g clip-path="url(#cp120)">
<text fill="#dcdcdc" xml:space="preserve" transform="matrix(1 0 -0 1 0 841.92)" font-size="10.56" font-family="Consolas"><tspan y="-107.18" x="89.304"> </tspan></text>
</g>
<clipPath id="cp121">
<path transform="matrix(1,0,0,-1,0,841.92)" d="M .000008871 0 L 595.32 0 L 595.32 841.92 L .000008871 841.92 Z " fill-rule="evenodd"/>
</clipPath>
<g clip-path="url(#cp121)">
<text fill="#9cdcfe" xml:space="preserve" transform="matrix(1 0 -0 1 0 841.92)" font-size="10.56" font-family="Consolas"><tspan y="-107.18" x="95.064 100.824008">go</tspan></text>
</g>
<clipPath id="cp122">
<path transform="matrix(1,0,0,-1,0,841.92)" d="M .000008871 0 L 595.32 0 L 595.32 841.92 L .000008871 841.92 Z " fill-rule="evenodd"/>
</clipPath>
<g clip-path="url(#cp122)">
<text fill="#dcdcdc" xml:space="preserve" transform="matrix(1 0 -0 1 0 841.92)" font-size="10.56" font-family="Consolas"><tspan y="-107.18" x="106.58"> </tspan></text>
</g>
<clipPath id="cp123">
<path transform="matrix(1,0,0,-1,0,841.92)" d="M .000008871 0 L 595.32 0 L 595.32 841.92 L .000008871 841.92 Z " fill-rule="evenodd"/>
</clipPath>
<g clip-path="url(#cp123)">
<text fill="#9cdcfe" xml:space="preserve" transform="matrix(1 0 -0 1 0 841.92)" font-size="10.56" font-family="Consolas"><tspan y="-107.18" x="112.34 118.09519 123.85039 129.60559 135.3608 141.116 146.98735">install</tspan></text>
</g>
<clipPath id="cp124">
<path transform="matrix(1,0,0,-1,0,841.92)" d="M .000008871 0 L 595.32 0 L 595.32 841.92 L .000008871 841.92 Z " fill-rule="evenodd"/>
</clipPath>
<g clip-path="url(#cp124)">
<text fill="#dcdcdc" xml:space="preserve" transform="matrix(1 0 -0 1 0 841.92)" font-size="10.56" font-family="Consolas"><tspan y="-107.18" x="152.78"> </tspan></text>
</g>
<clipPath id="cp125">
<path transform="matrix(1,0,0,-1,0,841.92)" d="M .000008871 0 L 595.32 0 L 595.32 841.92 L .000008871 841.92 Z " fill-rule="evenodd"/>
</clipPath>
<g clip-path="url(#cp125)">
<text fill="#9cdcfe" xml:space="preserve" transform="matrix(1 0 -0 1 0 841.92)" font-size="10.56" font-family="Consolas"><tspan y="-107.18" x="158.54 164.2952 170.0504 175.8056 181.5608 187.31601 193.18737 198.94257 204.69777 210.45298 216.20818 221.96338 227.71858 233.47379 239.22899 244.98419 250.7394 256.4946 262.24983 268.1212 273.8764 279.63163 285.38685 291.14207 296.89729 302.6525 308.4077 314.27909 320.0343">github.com/telkomdev/indihome</tspan></text>
</g>
<clipPath id="cp126">
<path transform="matrix(1,0,0,-1,0,841.92)" d="M .000008871 0 L 595.32 0 L 595.32 841.92 L .000008871 841.92 Z " fill-rule="evenodd"/>
</clipPath>
<g clip-path="url(#cp126)">
<text fill="#dcdcdc" xml:space="preserve" transform="matrix(1 0 -0 1 0 841.92)" font-size="10.56" font-family="Consolas"><tspan y="-107.18" x="325.99"> </tspan></text>
</g>
<clipPath id="cp127">
<path transform="matrix(1,0,0,-1,0,841.92)" d="M .000008871 0 L 595.32 0 L 595.32 841.92 L .000008871 841.92 Z " fill-rule="evenodd"/>
</clipPath>
<g clip-path="url(#cp127)">
<text fill="#dcdcdc" xml:space="preserve" transform="matrix(1 0 -0 1 0 841.92)" font-size="10.56" font-family="Consolas"><tspan y="-107.18" x="331.75"> </tspan></text>
</g>
<clipPath id="cp128">
<path transform="matrix(1,0,0,-1,0,841.92)" d="M .000008871 0 L 595.32 0 L 595.32 841.92 L .000008871 841.92 Z " fill-rule="evenodd"/>
</clipPath>
<g clip-path="url(#cp128)">
</g>
</g>
<g id="Layer-1" data-name="P">
<path transform="matrix(1,0,0,-1,0,841.92)" d="M 70.584 90.264 L 524.854 90.264 L 524.854 104.544 L 70.584 104.544 Z " fill="#282828" fill-rule="evenodd"/>
</g>
<g id="Layer-1" data-name="P">
<clipPath id="cp129">
<path transform="matrix(1,0,0,-1,0,841.92)" d="M .000008871 0 L 595.32 0 L 595.32 841.92 L .000008871 841.92 Z " fill-rule="evenodd"/>
</clipPath>
<g clip-path="url(#cp129)">
<text fill="#c586c0" xml:space="preserve" transform="matrix(1 0 -0 1 0 841.92)" font-size="10.56" font-family="Consolas"><tspan y="-92.904" x="72.024 77.784008 83.54401 89.30401 95.06401 100.82401">EXPOSE</tspan></text>
</g>
<clipPath id="cp130">
<path transform="matrix(1,0,0,-1,0,841.92)" d="M .000008871 0 L 595.32 0 L 595.32 841.92 L .000008871 841.92 Z " fill-rule="evenodd"/>
</clipPath>
<g clip-path="url(#cp130)">
<text fill="#dcdcdc" xml:space="preserve" transform="matrix(1 0 -0 1 0 841.92)" font-size="10.56" font-family="Consolas"><tspan y="-92.904" x="106.58"> </tspan></text>
</g>
<clipPath id="cp131">
<path transform="matrix(1,0,0,-1,0,841.92)" d="M .000008871 0 L 595.32 0 L 595.32 841.92 L .000008871 841.92 Z " fill-rule="evenodd"/>
</clipPath>
<g clip-path="url(#cp131)">
<text fill="#9cdcfe" xml:space="preserve" transform="matrix(1 0 -0 1 0 841.92)" font-size="10.56" font-family="Consolas"><tspan y="-92.904" x="112.34 118.1 123.86 129.62">8080</tspan></text>
</g>
<clipPath id="cp132">
<path transform="matrix(1,0,0,-1,0,841.92)" d="M .000008871 0 L 595.32 0 L 595.32 841.92 L .000008871 841.92 Z " fill-rule="evenodd"/>
</clipPath>
<g clip-path="url(#cp132)">
<text fill="#dcdcdc" xml:space="preserve" transform="matrix(1 0 -0 1 0 841.92)" font-size="10.56" font-family="Consolas"><tspan y="-92.904" x="135.5"> </tspan></text>
</g>
<clipPath id="cp133">
<path transform="matrix(1,0,0,-1,0,841.92)" d="M .000008871 0 L 595.32 0 L 595.32 841.92 L .000008871 841.92 Z " fill-rule="evenodd"/>
</clipPath>
<g clip-path="url(#cp133)">
</g>
</g>
<g id="Layer-1" data-name="P">
<path transform="matrix(1,0,0,-1,0,841.92)" d="M 70.584 75.984 L 524.854 75.984 L 524.854 90.264 L 70.584 90.264 Z " fill="#282828" fill-rule="evenodd"/>
</g>
<g id="Layer-1" data-name="P">
<clipPath id="cp134">
<path transform="matrix(1,0,0,-1,0,841.92)" d="M .000008871 0 L 595.32 0 L 595.32 841.92 L .000008871 841.92 Z " fill-rule="evenodd"/>
</clipPath>
<g clip-path="url(#cp134)">
<text fill="#c586c0" xml:space="preserve" transform="matrix(1 0 -0 1 0 841.92)" font-size="10.56" font-family="Consolas"><tspan y="-78.624" x="72.024 77.784008 83.54401 89.30401 95.06401 100.82401 106.584018 112.34402 118.10402 123.86402">ENTRYPOINT</tspan></text>
</g>
<clipPath id="cp135">
<path transform="matrix(1,0,0,-1,0,841.92)" d="M .000008871 0 L 595.32 0 L 595.32 841.92 L .000008871 841.92 Z " fill-rule="evenodd"/>
</clipPath>
<g clip-path="url(#cp135)">
<text fill="#dcdcdc" xml:space="preserve" transform="matrix(1 0 -0 1 0 841.92)" font-size="10.56" font-family="Consolas"><tspan y="-78.624" x="129.62"> </tspan></text>
</g>
<clipPath id="cp136">
<path transform="matrix(1,0,0,-1,0,841.92)" d="M .000008871 0 L 595.32 0 L 595.32 841.92 L .000008871 841.92 Z " fill-rule="evenodd"/>
</clipPath>
<g clip-path="url(#cp136)">
<text fill="#9cdcfe" xml:space="preserve" transform="matrix(1 0 -0 1 0 841.92)" font-size="10.56" font-family="Consolas"><tspan y="-78.624" x="135.38">[</tspan></text>
</g>
<clipPath id="cp137">
<path transform="matrix(1,0,0,-1,0,841.92)" d="M .000008871 0 L 595.32 0 L 595.32 841.92 L .000008871 841.92 Z " fill-rule="evenodd"/>
</clipPath>
<g clip-path="url(#cp137)">
<text fill="#ce9178" xml:space="preserve" transform="matrix(1 0 -0 1 0 841.92)" font-size="10.56" font-family="Consolas"><tspan y="-78.624" x="141.14 147.01136 152.76656 158.52176 164.27696 170.03217 175.78737 181.54257 187.29778 193.16913 198.92433 204.67954 210.43474 216.18994 221.94515 227.70035 233.45555 239.21076">"/go/bin/indihome"</tspan></text>
</g>
<clipPath id="cp138">
<path transform="matrix(1,0,0,-1,0,841.92)" d="M .000008871 0 L 595.32 0 L 595.32 841.92 L .000008871 841.92 Z " fill-rule="evenodd"/>
</clipPath>
<g clip-path="url(#cp138)">
<text fill="#9cdcfe" xml:space="preserve" transform="matrix(1 0 -0 1 0 841.92)" font-size="10.56" font-family="Consolas"><tspan y="-78.624" x="245.09">]</tspan></text>
</g>
<clipPath id="cp139">
<path transform="matrix(1,0,0,-1,0,841.92)" d="M .000008871 0 L 595.32 0 L 595.32 841.92 L .000008871 841.92 Z " fill-rule="evenodd"/>
</clipPath>
<g clip-path="url(#cp139)">
<text fill="#dcdcdc" xml:space="preserve" transform="matrix(1 0 -0 1 0 841.92)" font-size="10.56" font-family="Consolas"><tspan y="-78.624" x="250.97"> </tspan></text>
</g>
<clipPath id="cp140">
<path transform="matrix(1,0,0,-1,0,841.92)" d="M .000008871 0 L 595.32 0 L 595.32 841.92 L .000008871 841.92 Z " fill-rule="evenodd"/>
</clipPath>
<g clip-path="url(#cp140)">
</g>
</g>
</g>
</g>
</svg>
